<svg width="781" height="1117" viewBox="0 0 781 1117" fill="none" xmlns="http://www.w3.org/2000/svg">
<path fill-rule="evenodd" clip-rule="evenodd" d="M781 0H314.649L186 1117H781V0Z" fill="#CD1DE4" fill-opacity="0.53"/>
<mask id="mask0_0_1" style="mask-type:luminance" maskUnits="userSpaceOnUse" x="0" y="283" width="674" height="561">
<path d="M673.618 283H0V843.035H673.618V283Z" fill="white"/>
</mask>
<g mask="url(#mask0_0_1)">
<path d="M435.421 505.598C465.466 479.78 480.963 439.931 483.751 400.417C485.002 382.675 483.795 364.268 476.175 348.196C470.722 336.693 462.23 326.899 453.158 317.968C439.959 304.974 424.851 293.227 407.142 287.799C393.995 283.769 379.983 283.404 366.269 284.421C344.439 286.038 322.666 291.17 303.315 301.404C283.965 311.637 267.123 327.185 257.177 346.684C247.503 365.648 244.673 387.642 246.831 408.82C250.13 441.208 265.197 472.442 289.194 494.446C296.262 500.928 304.861 506.885 313.769 508.35C297.415 565.843 254.424 734.068 254.424 734.068L502.878 738.211C502.878 738.211 455.038 569.485 435.423 505.597L435.421 505.598Z" fill="#010101" stroke="#010101" stroke-width="1.5" stroke-linecap="round" stroke-linejoin="round"/>
<path d="M618.452 372.874C620.119 361.487 619.273 356.894 620.94 345.506C525.871 342.515 376.403 346.652 376.403 346.652L372.997 372.52C372.997 372.52 519.107 372.806 618.452 372.874Z" fill="#010101" stroke="#010101" stroke-width="1.5" stroke-linecap="round" stroke-linejoin="round"/>
<path d="M372.839 372.179C365.995 429.372 351.954 668.901 351.954 668.901L598.378 668.02L618.453 372.874C618.453 372.874 411.187 372.179 372.84 372.179H372.839Z" fill="white" stroke="#010101" stroke-width="1.5" stroke-linecap="round" stroke-linejoin="round"/>
<path d="M662.019 404.832C665.572 402.878 669.125 400.924 672.678 398.97" stroke="#010101" stroke-width="1.5" stroke-linecap="round" stroke-linejoin="round"/>
<path d="M515.087 477.805C514.437 478.621 513.736 479.385 512.983 480.099C506.533 486.28 496.999 488.728 487.936 489.034C478.798 489.34 469.453 487.773 461.41 483.426C459.065 482.165 456.834 480.635 454.795 478.889C449.849 474.684 446 469.216 444.215 462.996C442.201 455.972 442.865 448.351 445.234 441.443C451.289 423.701 470.433 410.42 488.84 413.964C494.448 415.047 504.71 418.093 511.502 425.18C516.321 430.214 520.616 437.862 521.98 444.694C524.287 456.202 522.452 468.667 515.084 477.806L515.087 477.805Z" fill="#FF8B37" stroke="#010101" stroke-width="1.5" stroke-linecap="round" stroke-linejoin="round"/>
<path d="M512.983 480.099C506.533 486.28 496.999 488.728 487.936 489.034C478.797 489.34 469.453 487.773 461.41 483.426C459.064 482.165 456.834 480.635 454.794 478.889C455.304 478.291 455.84 477.653 456.414 476.965C463.259 468.783 473.99 463.978 484.66 464.322C495.341 464.654 505.742 470.134 512.052 478.75C512.371 479.196 512.689 479.642 512.982 480.101L512.983 480.099Z" fill="white" stroke="#010101" stroke-width="1.5" stroke-linecap="round" stroke-linejoin="round"/>
<path d="M476.108 434.577C473.315 436.92 471.445 440.3 470.853 443.895C470.458 446.287 470.623 448.856 471.834 450.956C473.407 453.683 476.469 455.201 479.503 456.044C483.661 457.199 488.271 457.332 492.152 455.443C497.658 452.763 499.142 446.85 497.475 440.959C495.808 435.067 484.443 427.585 476.109 434.577H476.108Z" fill="white" stroke="#010101" stroke-width="1.5" stroke-linecap="round" stroke-linejoin="round"/>
<path d="M396.075 542.233C395.114 536.226 395.993 525.19 395.74 519.111C395.173 505.486 408.075 508.758 419.557 507.864C439.359 506.324 535.998 506.956 560.18 508.135C567.814 508.508 569.628 513.491 569.628 517.266C569.628 522.42 570.794 533.899 569.628 541.286C568.419 548.94 564.527 550.557 558.176 550.809C536.008 551.686 507.739 551.278 413.338 551.278C410.05 551.278 406.696 551.678 403.535 550.769C400.375 549.859 396.95 547.705 396.075 542.233Z" fill="white" stroke="#010101" stroke-width="1.5" stroke-linecap="round" stroke-linejoin="round"/>
<path d="M396.075 605.301C395.114 599.294 395.993 588.258 395.74 582.179C395.173 568.554 408.075 571.826 419.557 570.932C439.359 569.392 536.517 569.604 560.698 570.784C568.333 571.157 570.146 576.139 570.146 579.915C570.146 585.069 570.794 596.967 569.628 604.354C568.419 612.008 564.527 613.625 558.176 613.877C536.008 614.754 507.739 614.346 413.338 614.346C410.05 614.346 406.696 614.746 403.535 613.837C400.375 612.927 396.95 610.772 396.075 605.3V605.301Z" fill="white" stroke="#010101" stroke-width="1.5" stroke-linecap="round" stroke-linejoin="round"/>
<path d="M413.846 533.399C416.184 533.399 418.081 531.503 418.081 529.165C418.081 526.827 416.184 524.93 413.846 524.93C411.508 524.93 409.611 526.827 409.611 529.165C409.611 531.503 411.508 533.399 413.846 533.399Z" fill="#010101" stroke="#010101" stroke-width="1.5" stroke-linecap="round" stroke-linejoin="round"/>
<path d="M437.46 533.399C439.798 533.399 441.695 531.503 441.695 529.165C441.695 526.827 439.798 524.93 437.46 524.93C435.122 524.93 433.225 526.827 433.225 529.165C433.225 531.503 435.122 533.399 437.46 533.399Z" fill="#010101" stroke="#010101" stroke-width="1.5" stroke-linecap="round" stroke-linejoin="round"/>
<path d="M463.025 533.399C465.364 533.399 467.26 531.503 467.26 529.165C467.26 526.827 465.364 524.93 463.025 524.93C460.687 524.93 458.791 526.827 458.791 529.165C458.791 531.503 460.687 533.399 463.025 533.399Z" fill="#010101" stroke="#010101" stroke-width="1.5" stroke-linecap="round" stroke-linejoin="round"/>
<path d="M486.174 533.399C488.512 533.399 490.409 531.503 490.409 529.165C490.409 526.827 488.512 524.93 486.174 524.93C483.835 524.93 481.939 526.827 481.939 529.165C481.939 531.503 483.835 533.399 486.174 533.399Z" fill="#010101" stroke="#010101" stroke-width="1.5" stroke-linecap="round" stroke-linejoin="round"/>
<path d="M509.788 533.399C512.126 533.399 514.022 531.503 514.022 529.165C514.022 526.827 512.126 524.93 509.788 524.93C507.449 524.93 505.553 526.827 505.553 529.165C505.553 531.503 507.449 533.399 509.788 533.399Z" fill="#010101" stroke="#010101" stroke-width="1.5" stroke-linecap="round" stroke-linejoin="round"/>
<path d="M535.649 533.399C537.988 533.399 539.884 531.503 539.884 529.165C539.884 526.827 537.988 524.93 535.649 524.93C533.311 524.93 531.415 526.827 531.415 529.165C531.415 531.503 533.311 533.399 535.649 533.399Z" fill="#010101" stroke="#010101" stroke-width="1.5" stroke-linecap="round" stroke-linejoin="round"/>
<path d="M417.186 592.081C421.174 591.9 425.165 591.816 429.156 591.83" stroke="#010101" stroke-width="1.5" stroke-linecap="round" stroke-linejoin="round"/>
<path d="M419.168 596.899C420.577 595.262 421.986 593.625 423.395 591.988C424.785 593.843 426.291 595.329 427.621 597.104" stroke="#010101" stroke-width="1.5" stroke-linecap="round" stroke-linejoin="round"/>
<path d="M419.851 587.177C421.359 588.971 421.727 590.32 423.394 591.987C423.886 591.189 425.516 588.853 426.827 587.244" stroke="#010101" stroke-width="1.5" stroke-linecap="round" stroke-linejoin="round"/>
<path d="M441.229 592.081C445.217 591.9 449.208 591.816 453.199 591.83" stroke="#010101" stroke-width="1.5" stroke-linecap="round" stroke-linejoin="round"/>
<path d="M443.211 596.899C444.62 595.262 446.029 593.625 447.438 591.988C448.828 593.843 450.334 595.329 451.664 597.104" stroke="#010101" stroke-width="1.5" stroke-linecap="round" stroke-linejoin="round"/>
<path d="M443.894 587.177C445.402 588.971 445.77 590.32 447.437 591.987C447.929 591.189 449.559 588.853 450.87 587.244" stroke="#010101" stroke-width="1.5" stroke-linecap="round" stroke-linejoin="round"/>
<path d="M465.272 592.081C469.259 591.9 473.251 591.816 477.242 591.83" stroke="#010101" stroke-width="1.5" stroke-linecap="round" stroke-linejoin="round"/>
<path d="M467.254 596.899C468.663 595.262 470.072 593.625 471.481 591.988C472.871 593.843 474.377 595.329 475.707 597.104" stroke="#010101" stroke-width="1.5" stroke-linecap="round" stroke-linejoin="round"/>
<path d="M467.937 587.177C469.446 588.971 469.813 590.32 471.48 591.987C471.972 591.189 473.603 588.853 474.913 587.244" stroke="#010101" stroke-width="1.5" stroke-linecap="round" stroke-linejoin="round"/>
<path d="M489.315 592.081C493.303 591.9 497.294 591.816 501.286 591.83" stroke="#010101" stroke-width="1.5" stroke-linecap="round" stroke-linejoin="round"/>
<path d="M491.297 596.899C492.706 595.262 494.115 593.625 495.524 591.988C496.914 593.843 498.42 595.329 499.75 597.104" stroke="#010101" stroke-width="1.5" stroke-linecap="round" stroke-linejoin="round"/>
<path d="M491.98 587.177C493.489 588.971 493.856 590.32 495.523 591.987C496.015 591.189 497.646 588.853 498.956 587.244" stroke="#010101" stroke-width="1.5" stroke-linecap="round" stroke-linejoin="round"/>
<path d="M513.568 592.081C517.555 591.9 521.547 591.816 525.538 591.83" stroke="#010101" stroke-width="1.5" stroke-linecap="round" stroke-linejoin="round"/>
<path d="M515.549 596.899C516.958 595.262 518.367 593.625 519.776 591.988C521.165 593.843 522.672 595.329 524.002 597.104" stroke="#010101" stroke-width="1.5" stroke-linecap="round" stroke-linejoin="round"/>
<path d="M516.232 587.177C517.741 588.971 518.109 590.32 519.776 591.987C520.268 591.189 521.898 588.853 523.208 587.244" stroke="#010101" stroke-width="1.5" stroke-linecap="round" stroke-linejoin="round"/>
<path d="M537.611 592.081C541.599 591.9 545.59 591.816 549.581 591.83" stroke="#010101" stroke-width="1.5" stroke-linecap="round" stroke-linejoin="round"/>
<path d="M539.592 596.899C541.001 595.262 542.41 593.625 543.819 591.988C545.208 593.843 546.715 595.329 548.045 597.104" stroke="#010101" stroke-width="1.5" stroke-linecap="round" stroke-linejoin="round"/>
<path d="M540.276 587.177C541.785 588.971 542.152 590.32 543.819 591.987C544.311 591.189 545.942 588.853 547.252 587.244" stroke="#010101" stroke-width="1.5" stroke-linecap="round" stroke-linejoin="round"/>
<path d="M403.565 841.366C410.225 824.118 419.341 810.05 428.423 793.946C432.096 787.434 435.797 780.881 440.605 775.156C459.725 752.405 478.283 761.46 463.195 804.7C457.807 820.142 455.357 829.947 451.119 842.094C460.385 811.822 470.359 780.321 492.444 757.637C496.473 753.5 500.952 749.654 506.251 747.357C508.298 746.47 510.531 745.817 512.741 746.117C517.361 746.745 521.158 751.002 522.142 755.559C526.251 774.59 522.756 783.701 512.015 810.194C508.125 819.794 502.999 830.702 498.476 841.855C459.23 841.855 430.974 841.364 403.565 841.364V841.366Z" fill="#55D087" stroke="#010101" stroke-width="1.5" stroke-linecap="round" stroke-linejoin="round"/>
<path d="M428.625 841.366C437.15 816.131 449.683 786.911 461.626 763.103" stroke="#010101" stroke-width="1.5" stroke-linecap="round" stroke-linejoin="round"/>
<path d="M474.346 841.216C487.294 809.268 500.733 778.171 514.556 746.591" stroke="#010101" stroke-width="1.5" stroke-linecap="round" stroke-linejoin="round"/>
<path d="M228.342 493.964C214.552 486.884 198.319 487.031 182.821 487.34C169.971 487.596 156.775 487.919 144.89 492.813C142.884 493.639 140.854 494.65 139.534 496.373C138.155 498.176 137.733 500.517 137.456 502.77C134.902 523.481 144.817 610.367 150.126 631.345C173.681 630.623 190.352 628.22 213.907 627.497C215.228 627.457 222.827 518.713 228.343 493.965L228.342 493.964Z" fill="white" stroke="#010101" stroke-width="1.5" stroke-linecap="round" stroke-linejoin="round"/>
<path d="M180.636 386.632C175.683 387.888 170.533 389.246 166.68 392.601C163.087 395.73 160.795 400.456 156.477 402.469C154.184 403.538 151.506 403.728 149.385 405.107C145.957 407.336 145.041 411.847 143 415.39C140.995 418.867 137.757 421.573 136.11 425.234C134.932 427.855 134.637 430.832 133.266 433.357C131.027 437.483 126.347 439.692 123.564 443.472C120.172 448.081 120.044 454.333 117.415 459.416C115.401 463.312 111.968 466.414 110.423 470.518C109.189 473.794 109.272 477.418 108.327 480.788C107.425 484.007 105.595 486.953 105.06 490.254C104.296 494.971 106.264 499.656 108.188 504.03C109.004 505.884 109.856 507.79 111.327 509.182C113.758 511.481 117.393 511.932 120.738 511.818C127.881 511.574 134.794 509.318 141.479 506.788C150.8 503.26 160.095 499.113 170.025 498.262C184.061 497.061 198.928 502.464 211.908 496.992C214.507 495.896 216.98 494.341 218.691 492.099C220.206 490.111 221.041 487.701 221.336 485.19C222.794 482.111 223.423 478.643 223.139 475.249C222.949 472.963 222.352 470.705 222.436 468.414C222.636 462.983 226.607 457.747 225.07 452.535C224.404 450.28 222.774 448.425 221.973 446.213C221.068 443.715 221.289 440.969 221.52 438.322C221.786 435.282 222.052 432.242 222.318 429.204C222.446 427.746 222.538 426.145 221.682 424.957C221.223 424.318 220.534 423.874 220.061 423.245C219.625 422.666 219.394 421.962 219.186 421.268C217.698 416.316 216.977 411.134 217.051 405.963C217.088 403.325 217.302 400.535 216.069 398.202C215.025 396.224 213.101 394.893 211.25 393.639C208.453 391.746 204.799 389.505 201.796 387.961C193.842 383.875 182.994 386.029 180.636 386.628V386.632Z" fill="#010101" stroke="#010101" stroke-width="1.5" stroke-linecap="round" stroke-linejoin="round"/>
<path d="M167.653 428.701C165.598 427.52 162.809 427.787 161.017 429.337C159.944 430.264 159.251 431.555 158.73 432.874C158.043 434.614 157.611 436.502 157.85 438.358C158.09 440.214 159.079 442.034 160.705 442.963C162.703 444.104 165.184 443.731 167.726 444.067C167.141 456.473 166.555 468.169 166.019 480.7C160.731 481.249 155.414 481.465 150.126 482.013C150.267 485.368 150.436 489.764 150.46 492.927C161.626 504.872 172.793 516.817 183.889 528.692C192.389 518.756 199.802 503.97 209.937 489.749C209.774 482.685 209.164 484.858 208.109 477.791C203.75 477.186 200.733 478.364 196.314 478.469C196.557 470.968 196.576 467.013 197.15 458.582C202.427 456.856 206.496 454.756 209.339 449.988C211.206 446.86 211.685 443.117 212.013 439.489C212.803 430.734 212.944 421.921 211.828 412.856C208.668 413.919 204.826 411.721 204.141 408.458C203.99 407.744 203.956 406.962 203.511 406.384C202.934 405.638 201.893 405.494 200.975 405.279C197.49 404.465 194.695 401.946 191.422 398.754C191.163 402.094 189.53 405.306 186.986 407.486C186.425 407.966 185.793 408.437 185.537 409.131C185.149 410.186 185.766 411.327 185.827 412.449C185.917 414.098 184.787 415.583 183.473 416.585C182.158 417.586 180.621 418.27 179.338 419.31C178.899 419.667 178.476 420.089 178.315 420.63C178.133 421.237 178.309 421.888 178.286 422.521C178.241 423.778 177.324 424.956 176.116 425.307C175.642 425.445 175.123 425.471 174.705 425.732C174.318 425.975 174.073 426.384 173.788 426.743C172.489 428.381 169.76 429.912 167.653 428.701Z" fill="white" stroke="#010101" stroke-width="1.5" stroke-linecap="round" stroke-linejoin="round"/>
<path d="M125.756 632.001C124.212 615.922 124.697 599.843 123.153 583.764C113.034 582.736 97.5809 578.436 85.272 576.659C94.413 536.099 109.811 504.457 113.894 499.373C121.593 489.784 139.079 482.343 155.044 481.687C157.782 529.96 161.228 582.494 163.038 630.828C150.453 631.345 137.867 631.863 125.756 632.002V632.001Z" fill="#7B5FF1" stroke="#010101" stroke-width="1.5" stroke-linecap="round" stroke-linejoin="round"/>
<path d="M365.08 466.142C364.232 460.1 358.985 455.626 353.549 452.856C356.344 446.96 358.697 440.822 360.54 434.534C360.855 433.461 360.806 431.838 359.69 431.757C359.001 431.706 358.499 432.373 358.141 432.964C353.544 440.567 349.595 448.563 346.354 456.835C345.702 454.389 344.566 452.073 343.032 450.059C342.262 449.046 340.965 448.021 339.845 448.626C338.989 449.089 338.824 450.233 338.825 451.207C338.839 457.777 341.767 464.794 338.733 470.623C321.576 498.989 319.669 501.033 302.391 527.241C299.636 525.259 297.087 523.054 294.654 520.723C290.223 533.512 281.731 550.227 272.7 559.909C274.973 561.589 277.392 563.213 280 564.729C287.285 568.963 296.525 569.812 304.583 567.349C313.962 564.484 321.354 557.01 326.849 548.888C344.607 522.635 352.39 505.962 363.57 476.17C364.767 472.978 365.552 469.518 365.078 466.142H365.08Z" fill="white" stroke="#010101" stroke-width="1.5" stroke-linecap="round" stroke-linejoin="round"/>
<path d="M268.278 493.006C254.281 481.285 243.434 474.189 203.724 477.653C208.61 526.824 210.112 578.456 208.95 627.896C221.907 626.766 235.586 626.218 249.258 625.538C249.258 592.992 249.108 566.867 249.108 536.211C254.392 542.198 261.671 551.759 272.703 559.912C281.733 550.229 290.225 533.515 294.656 520.726C285.413 511.873 277.955 501.11 268.28 493.009L268.278 493.006Z" fill="#7B5FF1" stroke="#010101" stroke-width="1.5" stroke-linecap="round" stroke-linejoin="round"/>
<path d="M147.743 483.106C143.603 491.241 140.528 499.311 136.388 507.446C139.588 510.132 143.143 512.396 146.932 514.158C144.953 522.169 142.085 529.96 138.401 537.344C145.435 544.451 152.47 551.558 159.503 558.664" stroke="#010101" stroke-width="1.5" stroke-linecap="round" stroke-linejoin="round"/>
<path d="M225.39 769.638C220.663 774.807 211.321 783.88 206.594 789.05C223.041 809.928 246.041 839.54 248.209 840.488C251.602 841.973 247.116 819.832 250.501 811.132C251.422 808.765 254.539 800.606 255.747 798.372C258.096 794.031 237.719 775.696 225.388 769.638H225.39Z" fill="#010101" stroke="#010101" stroke-width="1.5" stroke-linecap="round" stroke-linejoin="round"/>
<path d="M211.664 477.052C215.683 483.165 219.702 491.407 223.895 497.166C220.907 499.789 217.917 502.413 214.928 505.036C219.039 508.842 222.875 512.945 225.543 518.128C221.822 531.755 216.576 544.967 209.936 557.436" stroke="#010101" stroke-width="1.5" stroke-linecap="round" stroke-linejoin="round"/>
<path d="M248.676 535.111C248.162 526.794 247.649 518.477 247.136 510.16" stroke="#010101" stroke-width="1.5" stroke-linecap="round" stroke-linejoin="round"/>
<path d="M198.116 422.429C199.706 426.29 201.296 430.15 202.885 434.009C201.034 434.968 199.053 435.675 197.014 436.103" stroke="#010101" stroke-width="1.5" stroke-linecap="round" stroke-linejoin="round"/>
<path d="M137.015 706.123C131.647 739.387 129.295 760.594 119.378 840.49" stroke="#010101" stroke-width="1.5" stroke-linecap="round" stroke-linejoin="round"/>
<path d="M161.224 705.582C159.127 739.211 158.855 760.547 156.78 841.028" stroke="#010101" stroke-width="1.5" stroke-linecap="round" stroke-linejoin="round"/>
<path d="M226.71 706.123C229.865 750.501 242.762 763.845 248.21 840.49" stroke="#010101" stroke-width="1.5" stroke-linecap="round" stroke-linejoin="round"/>
<path d="M123.728 812.002C164.229 812.708 204.763 811.585 245.164 808.637" stroke="#010101" stroke-width="1.5" stroke-linecap="round" stroke-linejoin="round"/>
<path d="M184.296 456.639C188.537 458.516 193.338 459.907 197.776 458.554" stroke="#010101" stroke-width="1.5" stroke-linecap="round" stroke-linejoin="round"/>
<path d="M123.251 583.65C126.521 571.191 128.1 565.022 130.618 552.389" stroke="#010101" stroke-width="1.5" stroke-linecap="round" stroke-linejoin="round"/>
<path d="M337.963 820.033C339.099 826.944 340.235 833.856 341.372 840.767C358.692 840.767 398.766 840.408 404.782 840.408C416.421 840.408 391.307 829.132 385.888 819.94C384.598 817.751 380.119 810.255 379.111 807.923C377.153 803.392 350.352 814.094 337.963 820.031V820.033Z" fill="#010101" stroke="#010101" stroke-width="1.5" stroke-linecap="round" stroke-linejoin="round"/>
<path d="M160.87 428.973C156.233 416.145 160.8 402.076 168.324 394.215C173.359 388.955 180.296 385.409 187.565 385C191.453 384.782 195.33 385.435 199.187 385.687C189.23 387.715 179.299 391.559 172.159 398.788C165.018 406.017 160.887 418.432 164.341 427.987C162.252 428.204 161.793 428.426 160.87 428.973Z" fill="#FF8B37" stroke="#010101" stroke-width="1.5" stroke-linecap="round" stroke-linejoin="round"/>
<path d="M189.222 385.84C190.583 382.574 193.611 380.293 196.776 378.711C198.36 377.921 200.046 377.254 201.814 377.153C203.581 377.051 205.451 377.582 206.656 378.88C207.179 379.444 207.572 380.168 207.585 380.939C207.599 381.805 207.129 382.626 206.486 383.208C205.844 383.791 205.044 384.165 204.241 384.487C199.833 386.255 195.015 386.688 190.269 386.899C189.82 386.919 188.814 386.82 189.222 385.84Z" fill="#FF8B37" stroke="#010101" stroke-width="1.5" stroke-linecap="round" stroke-linejoin="round"/>
<path d="M260.238 626.781C283.625 624.642 307.373 626.498 330.143 632.245C338.332 634.31 346.73 637.073 352.73 643.014C362.935 653.119 363.356 669.938 358.193 683.338C353.028 696.738 343.357 707.8 334.919 719.42C325.666 732.164 291.947 772.946 263.135 807.028C244.926 791.587 233.963 781.936 215.509 766.288C235.422 746.377 283.138 705.709 283.281 704.75C283.391 704.006 271.426 646.394 260.238 626.781Z" fill="white" stroke="#010101" stroke-width="1.5" stroke-linecap="round" stroke-linejoin="round"/>
<path d="M226.365 755.696C242.404 770.193 254.678 783.524 271.45 797.167" stroke="#010101" stroke-width="1.5" stroke-linecap="round" stroke-linejoin="round"/>
<path d="M183.678 388.368C182.116 386.809 180.512 385.259 178.624 384.113C176.736 382.967 174.521 382.243 172.326 382.485C170.131 382.727 167.993 384.06 167.157 386.105C166.849 386.862 166.724 387.72 166.963 388.503C167.26 389.481 168.092 390.226 169.026 390.643C169.96 391.06 170.993 391.189 172.011 391.274C175.545 391.57 179.469 391.252 183.678 388.368Z" fill="#FF8B37" stroke="#010101" stroke-width="1.5" stroke-linecap="round" stroke-linejoin="round"/>
<path d="M191.848 386.518C191.607 384.714 190.239 383.13 188.514 382.549C186.79 381.968 184.787 382.376 183.372 383.522C182.269 384.415 181.533 385.724 181.228 387.094C181.066 387.82 181.401 388.611 182.068 388.945C185.301 390.564 190.553 388.491 191.012 388.206C191.488 387.911 191.967 387.414 191.848 386.518Z" fill="#FF8B37" stroke="#010101" stroke-width="1.5" stroke-linecap="round" stroke-linejoin="round"/>
<path d="M126.504 632.093C120.875 647.816 122.404 665.947 130.589 680.504C134.701 687.817 141.009 690.857 148.762 694.069C156.669 697.344 165.547 696.25 174.107 696.25C202.376 696.25 231.224 697.452 266.764 695.022C273.976 705.973 279.469 716.881 284.482 728.996C298.142 762.001 313.888 794.141 332.322 825.989C351.162 819.119 370 812.249 390.54 805.822C382.772 786.667 345.436 696.712 329.453 663.305C319.91 643.359 314.643 633.256 293.317 627.938C282.62 625.271 260.28 625.879 249.26 625.536C238.941 625.215 171.54 628.237 126.506 632.093H126.504Z" fill="white" stroke="#010101" stroke-width="1.5" stroke-linecap="round" stroke-linejoin="round"/>
<path d="M324.31 811.385C343.691 803.549 363.073 795.713 382.456 787.876" stroke="#010101" stroke-width="1.5" stroke-linecap="round" stroke-linejoin="round"/>
<path d="M221.769 696.263C231.385 695.585 232.02 697.976 233.294 699.856C233.933 700.799 234.093 702.017 233.875 703.135C233.435 705.415 231.552 707.204 229.43 708.148C227.307 709.091 224.95 709.33 222.637 709.548C199.816 711.713 138.962 711.258 134.331 710.934C126.056 710.355 126.494 699.49 132.041 697.664C136.759 696.111 205.625 697.398 221.769 696.26V696.263Z" fill="#010101" stroke="#010101" stroke-width="1.5" stroke-linecap="round" stroke-linejoin="round"/>
<path d="M354.688 450.379C352.775 454.209 352.263 459.067 352.417 463.346C352.452 464.329 352.658 465.486 353.546 465.907C354.224 466.23 355.065 465.96 355.612 465.447C356.159 464.933 356.473 464.226 356.752 463.529C357.903 460.654 359.062 455.511 359.499 452.446C358.833 456.404 357.811 462.492 357.145 466.452C357.045 467.043 356.946 467.656 357.103 468.234C357.26 468.813 357.751 469.346 358.35 469.351C358.757 469.355 359.129 469.12 359.443 468.86C362.47 466.357 362.79 459.874 364.433 456.306C363.789 458.903 362.435 463.274 361.835 465.882C361.374 467.885 360.953 470.05 361.763 471.938C361.93 472.327 362.218 472.741 362.641 472.765C362.909 472.78 363.158 472.629 363.377 472.472C366.662 470.119 367.473 465.66 368.021 461.657C368.33 459.4 359.242 449.372 354.687 450.38L354.688 450.379Z" fill="white" stroke="#010101" stroke-width="1.5" stroke-linecap="round" stroke-linejoin="round"/>
<path d="M85.9319 448.198C84.3417 430.426 81.9256 412.728 78.5744 393.799C52.749 394.648 24.0093 393.88 0.941406 394.638C1.37191 407.055 3.2182 424.405 5.74726 436.57C24.2314 436.317 48.759 435.469 67.2331 436.103C69.4221 436.178 82.9648 446.099 85.9319 448.198Z" stroke="#010101" stroke-width="1.5" stroke-linecap="round" stroke-linejoin="round"/>
<path d="M16.7749 425.232C17.2807 421.504 17.8744 417.568 20.2541 414.654C22.6338 411.74 27.4522 410.478 30.1721 413.077C31.4812 414.328 32.0296 416.153 32.9208 417.73C33.8119 419.308 35.4222 420.795 37.2045 420.473C39.475 420.061 40.2206 417.241 41.7367 415.501C43.0433 414.003 45.162 413.26 47.1187 413.615C49.7432 414.092 51.7275 416.292 54.2566 417.138C56.2798 417.814 58.598 417.541 60.4092 416.414" stroke="#010101" stroke-width="1.5" stroke-linecap="round" stroke-linejoin="round"/>
<path d="M665.542 603.89C647.66 599.033 619.139 584.65 616.891 576.968C596.814 593.781 573.494 601.363 557.601 601.886C556.641 623.851 557.219 658.156 566.218 674.896C572.419 686.433 584.133 694.066 596.314 698.884C603.595 701.765 611.203 703.818 618.533 705.407C632.857 698.56 647.779 691.006 656.625 677.822C664.607 665.927 665.209 641.837 665.692 627.519C665.861 622.543 667.145 609.456 665.542 603.888V603.89Z" fill="#7B5FF1" stroke="#010101" stroke-width="1.5" stroke-linecap="round" stroke-linejoin="round"/>
<path d="M607.655 608.258C601.754 609.074 596.432 612.473 592.117 616.579C584.622 623.71 580.176 634.357 581.793 644.575C582.498 649.029 584.298 653.274 586.758 657.055C592.569 665.987 602.215 672.328 612.716 674.13C624.874 676.216 630.5 670.326 633.172 667.999C640.251 661.833 646.516 652.484 646.241 642.31C645.896 629.53 637.875 604.082 607.655 608.26V608.258Z" fill="white" stroke="#010101" stroke-width="1.5" stroke-linecap="round" stroke-linejoin="round"/>
<path d="M635.911 630.978C626.69 641.315 616.967 651.205 606.791 660.602C601.671 654.726 596.552 648.849 591.974 643.172C594.07 641.011 596.18 640.191 598.799 638.121C601.585 641.153 604.386 645.154 607.469 649.015C615.111 641.886 621.148 635.17 630.206 626.112C632.085 627.787 633.964 629.462 635.911 630.978Z" fill="#7B5FF1" stroke="#010101" stroke-width="1.5" stroke-linecap="round" stroke-linejoin="round"/>
<path d="M34.9851 666.951C34.3048 667.165 33.9659 668.066 34.296 668.698C34.6261 669.331 35.5047 669.582 36.1436 669.264C36.7774 668.949 37.1063 668.105 36.805 667.464C36.5038 666.824 35.6679 666.737 34.9851 666.951Z" fill="#010101" stroke="#010101" stroke-width="1.5" stroke-linecap="round" stroke-linejoin="round"/>
<path d="M563.809 746.26C562.714 746.604 562.169 748.054 562.7 749.072C563.231 750.09 564.644 750.494 565.672 749.982C566.691 749.473 567.222 748.117 566.735 747.086C566.248 746.056 564.908 745.915 563.809 746.26Z" fill="#010101" stroke="#010101" stroke-width="1.5" stroke-linecap="round" stroke-linejoin="round"/>
<path d="M220.133 581.226C219.11 580.891 217.937 581.205 216.84 581.518C210.996 583.188 208.69 584.18 202.85 585.863C208.636 583.955 210.947 583.137 213.364 582.253C217.583 580.706 222.94 579.062 221.751 576.212C221.102 575.098 218.542 575.57 217.216 575.965C211.052 577.804 205.615 579.854 201.825 581.581C204.262 580.388 209.801 578.065 213.95 576.338C214.997 575.902 216.095 575.429 216.837 574.546C217.58 573.661 217.789 572.231 216.979 571.577C216.188 570.939 214.947 571.326 213.919 571.736C207.105 574.451 203.37 575.784 197.552 578.052C202.784 575.689 204.841 573.193 204.489 572.017C203.897 570.026 200.675 570.981 199.159 571.641C191.056 575.166 188.633 576.896 182.572 579.775C164.642 583.863 136.709 589.479 121.669 591.022C122.344 587.971 121.763 586.433 122.143 583.648C107.115 580.745 100.082 579.395 88.9467 577.245C86.8054 584.952 85.1951 596.15 84.7571 604.137C84.5726 607.496 84.5663 610.998 85.9733 614.055C88.7797 620.158 96.2113 622.574 102.911 623.074C117.467 624.159 195.16 598.979 195.781 598.346C202.77 595.993 209.724 593.609 216.939 591.438C218.225 591.05 219.964 590.245 219.796 588.948C219.609 587.505 217.874 587.283 216.454 587.446C211.676 587.996 209.093 589.1 204.422 590.599C210.828 588.44 212.984 587.121 219.39 584.964C220.082 584.73 220.837 584.448 221.236 583.819C221.863 582.831 221.157 581.559 220.134 581.224L220.133 581.226Z" fill="white" stroke="#010101" stroke-width="1.5" stroke-linecap="round" stroke-linejoin="round"/>
<path d="M515.676 301.157C514.995 301.37 514.656 302.271 514.986 302.904C515.317 303.536 516.195 303.787 516.834 303.47C517.468 303.155 517.797 302.31 517.495 301.67C517.194 301.03 516.36 300.942 515.677 301.157H515.676Z" fill="#010101" stroke="#010101" stroke-width="1.5" stroke-linecap="round" stroke-linejoin="round"/>
</g>
</svg>
